<?xml version="1.0" standalone="no"?>
<!DOCTYPE svg PUBLIC "-//W3C//DTD SVG 20010904//EN"
 "http://www.w3.org/TR/2001/REC-SVG-20010904/DTD/svg10.dtd">
<svg version="1.0" xmlns="http://www.w3.org/2000/svg"
 width="400.000000pt" height="400.000000pt" viewBox="0 0 400.000000 400.000000"
 preserveAspectRatio="xMidYMid meet">

<g transform="translate(0.000000,400.000000) scale(0.100000,-0.100000)"
fill="#000000" stroke="none">
<path d="M0 2060 c0 -1933 0 -1940 20 -1940 13 0 20 -7 20 -20 0 -13 7 -20 20
-20 13 0 20 -7 20 -20 0 -13 7 -20 20 -20 13 0 20 -7 20 -20 0 -20 7 -20 1880
-20 1873 0 1880 0 1880 20 0 13 7 20 20 20 13 0 20 7 20 20 0 13 7 20 20 20
13 0 20 7 20 20 0 13 7 20 20 20 20 0 20 7 20 1940 l0 1940 -2000 0 -2000 0 0
-1940z m2138 1513 c3 -21 9 -23 63 -23 52 0 59 -2 59 -20 0 -17 7 -20 40 -20
33 0 40 -3 40 -20 0 -17 7 -20 40 -20 33 0 40 -3 40 -20 0 -13 7 -20 20 -20
13 0 20 -7 20 -20 0 -13 7 -20 20 -20 13 0 20 -7 20 -20 0 -13 7 -20 20 -20
13 0 20 -7 20 -20 0 -13 7 -20 20 -20 13 0 20 -7 20 -20 0 -13 7 -20 20 -20
13 0 20 -7 20 -20 0 -13 7 -20 20 -20 13 0 20 -7 20 -20 0 -13 7 -20 20 -20
17 0 20 -7 20 -40 0 -33 3 -40 20 -40 17 0 20 -7 20 -40 0 -33 3 -40 20 -40
18 0 20 -7 20 -80 0 -73 2 -80 20 -80 19 0 20 -7 20 -121 0 -112 1 -121 20
-126 19 -5 20 -14 20 -180 0 -166 1 -175 20 -180 15 -4 20 -14 20 -40 0 -26 5
-36 19 -40 14 -4 21 -15 23 -42 2 -29 8 -37 26 -39 18 -3 22 -10 22 -37 0 -27
-4 -34 -22 -37 -19 -2 -24 -10 -26 -45 -3 -35 -7 -43 -23 -43 -16 0 -19 -7
-19 -40 0 -33 -3 -40 -20 -40 -13 0 -20 -7 -20 -20 0 -13 -7 -20 -20 -20 -13
0 -20 -7 -20 -20 0 -13 -7 -20 -20 -20 -13 0 -20 -7 -20 -20 0 -18 -7 -20 -75
-20 -68 0 -75 2 -75 20 0 14 -7 20 -21 20 -12 0 -23 8 -26 20 -3 11 -14 20
-24 20 -12 0 -19 7 -19 20 0 17 -7 20 -40 20 -33 0 -40 3 -40 20 0 17 -7 20
-40 20 -33 0 -40 3 -40 20 0 17 -7 20 -40 20 -33 0 -40 3 -40 19 0 26 -12 32
-49 25 -36 -8 -45 -44 -11 -44 13 0 20 -7 20 -20 0 -13 7 -20 20 -20 13 0 20
-7 20 -20 0 -17 7 -20 40 -20 33 0 40 -3 40 -20 0 -13 7 -20 20 -20 17 0 20
-7 20 -40 0 -33 3 -40 20 -40 13 0 20 7 20 20 0 13 7 20 20 20 17 0 20 -7 20
-40 0 -33 3 -40 20 -40 18 0 20 -7 20 -60 0 -53 -2 -60 -20 -60 -13 0 -20 -7
-20 -20 0 -13 -7 -20 -20 -20 -13 0 -20 7 -20 20 0 13 -7 20 -20 20 -18 0 -20
-7 -20 -60 0 -53 -2 -60 -20 -60 -18 0 -20 7 -20 60 0 53 -2 60 -20 60 -18 0
-20 -7 -20 -60 l0 -60 -40 0 -40 0 0 60 0 60 40 0 c33 0 40 3 40 20 0 18 -7
20 -60 20 l-60 0 0 -80 0 -80 -40 0 -40 0 0 80 c0 73 -2 80 -20 80 -18 0 -20
-7 -20 -80 l0 -80 -40 0 -40 0 0 80 c0 73 -2 80 -20 80 -18 0 -20 -7 -20 -80
l0 -80 -40 0 -40 0 0 80 c0 72 -2 80 -19 80 -16 0 -20 -11 -26 -80 l-7 -80
-34 0 -34 0 0 80 0 80 -60 0 c-53 0 -60 -2 -60 -20 0 -17 7 -20 41 -20 41 0
41 0 35 -31 -3 -17 -6 -44 -6 -60 0 -26 -3 -29 -35 -29 -32 0 -35 3 -35 29 0
48 -12 91 -25 91 -13 0 -25 -43 -25 -91 0 -19 -5 -29 -15 -29 -10 0 -15 10
-15 29 0 49 -12 91 -26 91 -8 0 -14 -9 -14 -20 0 -13 -7 -20 -20 -20 -13 0
-20 7 -20 20 0 13 -7 20 -20 20 -18 0 -20 7 -20 60 0 47 3 60 15 60 11 0 15
11 15 40 0 36 3 40 25 40 18 0 25 -5 25 -20 0 -11 7 -20 15 -20 11 0 15 11 15
40 0 33 3 40 20 40 13 0 20 7 20 20 0 17 7 20 40 20 33 0 40 3 40 20 0 14 7
20 21 20 12 0 23 8 26 19 3 11 13 21 24 24 33 9 22 34 -18 40 -43 7 -53 3 -53
-24 0 -16 -7 -19 -40 -19 -33 0 -40 -3 -40 -20 0 -17 -7 -20 -40 -20 -33 0
-40 -3 -40 -20 0 -17 -7 -20 -40 -20 -33 0 -40 -3 -40 -20 0 -13 -7 -20 -20
-20 -13 0 -20 -7 -20 -20 0 -13 -7 -20 -20 -20 -13 0 -20 -7 -20 -20 0 -18 -7
-20 -75 -20 -68 0 -75 2 -75 20 0 14 -7 20 -21 20 -12 0 -23 8 -26 20 -3 11
-12 20 -20 20 -8 0 -17 9 -20 19 -3 11 -13 21 -24 24 -14 4 -19 14 -19 40 0
26 -5 36 -20 40 -16 4 -20 14 -20 46 0 34 -3 41 -20 41 -16 0 -20 7 -20 35 0
28 4 35 20 35 17 0 20 7 20 40 0 33 3 40 20 40 17 0 20 7 20 40 0 33 3 40 20
40 19 0 20 7 20 180 0 172 1 180 20 180 18 0 20 8 22 123 3 118 4 122 26 125
21 3 22 8 22 83 0 72 2 79 20 79 17 0 20 7 20 40 0 28 4 40 14 40 9 0 17 15
21 40 4 25 12 40 21 40 8 0 14 9 14 20 0 13 7 20 20 20 13 0 20 7 20 20 0 13
7 20 20 20 13 0 20 7 20 20 0 13 7 20 20 20 13 0 20 7 20 20 0 13 7 20 20 20
13 0 20 7 20 20 0 13 7 20 20 20 13 0 20 7 20 20 0 13 7 20 20 20 13 0 20 7
20 20 0 17 7 20 40 20 33 0 40 3 40 20 0 17 7 20 41 20 32 0 42 4 46 20 4 16
15 20 62 22 50 3 56 6 59 26 3 22 5 23 140 20 133 -3 137 -4 140 -25z m-768
-1953 c0 -33 3 -40 20 -40 18 0 20 -7 20 -80 0 -73 2 -80 20 -80 17 0 19 -8
22 -82 l3 -83 40 0 c39 0 40 1 43 38 3 29 7 37 23 37 10 0 19 -7 19 -15 0 -24
27 -18 34 8 3 12 6 39 6 60 0 26 4 37 15 37 10 0 16 -17 21 -60 4 -37 11 -60
19 -60 8 0 15 23 19 60 5 43 11 60 21 60 11 0 15 -11 15 -37 0 -21 3 -48 6
-60 5 -19 2 -23 -15 -23 -14 0 -21 -6 -21 -20 0 -17 7 -20 40 -20 l40 0 0 80
0 80 34 0 34 0 7 -80 c6 -69 10 -80 26 -80 17 0 19 8 19 81 l0 80 38 -3 37 -3
3 -77 c3 -70 5 -78 22 -78 18 0 20 7 20 80 l0 80 40 0 40 0 0 -80 c0 -73 2
-80 20 -80 18 0 20 7 20 80 l0 80 40 0 40 0 0 -80 0 -80 40 0 c33 0 40 3 40
20 0 13 -7 20 -20 20 -18 0 -20 7 -20 60 0 53 2 60 20 60 18 0 20 -7 20 -60 0
-53 2 -60 20 -60 18 0 20 7 20 60 0 53 2 60 20 60 18 0 20 -7 20 -60 0 -53 2
-60 20 -60 11 0 20 7 20 15 0 8 9 15 20 15 17 0 20 -7 20 -40 l0 -40 40 0 40
0 0 81 c0 72 2 81 20 86 18 5 20 14 20 84 0 78 0 79 25 79 23 0 25 4 25 40 0
39 1 40 35 40 28 0 35 -4 35 -20 0 -13 7 -20 20 -20 13 0 20 -7 20 -20 0 -13
-7 -20 -20 -20 -18 0 -20 -7 -20 -80 0 -73 -2 -80 -20 -80 -19 0 -20 -7 -20
-140 0 -133 -1 -140 -20 -140 -18 0 -20 -7 -20 -65 0 -58 -2 -65 -20 -65 -13
0 -20 -7 -20 -20 0 -13 -7 -20 -20 -20 -13 0 -20 -7 -20 -20 0 -13 -7 -20 -20
-20 -13 0 -20 -7 -20 -20 0 -17 -7 -20 -40 -20 -33 0 -40 -3 -40 -20 0 -17 -7
-20 -40 -20 -33 0 -40 -3 -40 -20 0 -17 -7 -20 -40 -20 -33 0 -40 -3 -40 -20
0 -18 -7 -20 -60 -20 -53 0 -60 -2 -60 -20 0 -19 -7 -20 -140 -20 -133 0 -140
1 -140 20 0 18 -7 20 -60 20 -53 0 -60 2 -60 20 0 17 -7 20 -40 20 -33 0 -40
3 -40 20 0 17 -7 20 -40 20 -33 0 -40 3 -40 20 0 17 -7 20 -40 20 -33 0 -40 3
-40 20 0 13 -7 20 -20 20 -13 0 -20 7 -20 20 0 13 -7 20 -20 20 -13 0 -20 7
-20 20 0 13 -7 20 -20 20 -18 0 -20 7 -20 61 0 52 -3 62 -20 66 -19 5 -20 14
-20 144 0 132 -1 139 -20 139 -18 0 -20 7 -20 80 0 73 -2 80 -20 80 -13 0 -20
7 -20 20 0 11 7 20 15 20 8 0 15 9 15 20 0 17 7 20 40 20 l40 0 0 -40z"/>
<path d="M1377 2783 c-4 -3 -7 -12 -7 -20 0 -10 20 -13 80 -13 73 0 80 -2 80
-20 0 -17 7 -20 39 -20 33 0 40 -4 43 -22 2 -19 10 -24 46 -26 28 -2 42 -8 42
-18 0 -8 9 -14 20 -14 13 0 20 -7 20 -20 0 -13 7 -20 20 -20 12 0 20 7 20 16
0 9 -9 18 -20 21 -11 3 -20 12 -20 20 0 8 -9 17 -20 20 -11 3 -20 14 -20 24 0
15 -7 19 -40 19 -33 0 -40 3 -40 20 0 17 -7 20 -40 20 -33 0 -40 3 -40 20 0
18 -7 20 -78 20 -43 0 -82 -3 -85 -7z"/>
<path d="M2460 2770 c0 -17 -7 -20 -40 -20 -33 0 -40 -3 -40 -20 0 -17 -7 -20
-40 -20 -33 0 -40 -3 -40 -20 0 -13 -7 -20 -20 -20 -13 0 -20 -7 -20 -20 0
-13 -7 -20 -20 -20 -13 0 -20 -7 -20 -20 0 -13 7 -20 20 -20 13 0 20 7 20 20
0 13 7 20 20 20 11 0 20 7 20 15 0 11 11 15 40 15 36 0 40 3 40 25 0 23 4 25
40 25 33 0 40 3 40 20 0 18 7 20 60 20 53 0 60 2 60 20 0 18 -7 20 -60 20 -53
0 -60 -2 -60 -20z"/>
<path d="M1250 2611 c0 -10 -9 -21 -20 -24 -11 -3 -20 -12 -20 -21 0 -9 8 -16
20 -16 11 0 20 7 20 15 0 8 9 15 20 15 16 0 20 -7 20 -35 0 -28 -4 -35 -20
-35 -17 0 -20 -7 -20 -40 0 -33 -3 -40 -20 -40 -19 0 -20 -7 -20 -105 0 -98 1
-105 20 -105 17 0 20 -7 20 -40 0 -33 3 -40 20 -40 13 0 20 -7 20 -20 0 -17 7
-20 40 -20 33 0 40 -3 40 -20 0 -19 7 -20 105 -20 98 0 105 1 105 20 0 17 7
20 40 20 33 0 40 3 40 20 0 17 7 20 40 20 l40 0 0 40 c0 33 3 40 20 40 17 0
20 7 20 40 0 33 3 40 20 40 17 0 20 -7 20 -40 0 -49 24 -55 34 -9 9 46 8 49
-14 49 -18 0 -20 7 -20 60 0 47 3 60 15 60 10 0 15 -10 15 -32 0 -52 11 -78
31 -78 16 0 19 8 19 55 0 48 2 55 20 55 15 0 20 7 20 25 0 18 5 25 20 25 11 0
20 7 20 15 0 8 -9 15 -20 15 -11 0 -20 -7 -20 -15 0 -12 -18 -15 -100 -15 -93
0 -100 1 -100 20 0 18 -7 20 -60 20 -53 0 -60 2 -60 20 0 18 -7 20 -60 20 -53
0 -60 2 -60 20 0 18 -7 20 -59 20 -50 0 -59 3 -64 20 -4 17 -14 20 -66 20 -53
0 -61 -2 -61 -19z"/>
<path d="M2620 2610 c0 -18 -7 -20 -60 -20 -53 0 -60 -2 -60 -20 0 -18 -7 -20
-60 -20 -53 0 -60 -2 -60 -20 0 -18 -7 -20 -60 -20 -53 0 -60 -2 -60 -20 0
-19 -7 -20 -100 -20 -82 0 -100 3 -100 15 0 8 -9 15 -20 15 -11 0 -20 -6 -20
-14 0 -7 9 -16 20 -19 12 -3 20 -14 20 -26 0 -14 6 -21 20 -21 18 0 20 -7 20
-55 0 -48 2 -55 20 -55 18 0 20 7 20 55 0 48 2 55 20 55 18 0 20 -7 20 -56 0
-47 -3 -57 -20 -61 -28 -7 -30 -86 -2 -81 12 2 18 14 20 41 3 29 7 37 23 37
16 0 19 -7 19 -40 0 -33 3 -40 20 -40 17 0 20 -7 20 -40 l0 -40 40 0 c33 0 40
-3 40 -20 0 -17 7 -20 40 -20 33 0 40 -3 40 -20 0 -19 7 -20 101 -20 92 0 101
2 106 20 4 16 14 20 44 20 32 0 39 3 39 20 0 13 7 20 20 20 17 0 20 7 20 40 0
33 3 40 20 40 19 0 20 7 20 101 0 92 -2 101 -20 106 -15 4 -20 14 -20 40 0 26
-5 36 -20 40 -11 3 -20 10 -20 17 0 6 -3 21 -6 34 -5 18 -2 22 15 22 12 0 21
-6 21 -15 0 -8 9 -15 20 -15 13 0 20 7 20 20 0 11 -7 20 -15 20 -8 0 -15 9
-15 20 0 18 -7 20 -65 20 -58 0 -65 -2 -65 -20z"/>
<path d="M1977 2423 c-4 -3 -7 -15 -7 -25 0 -10 -7 -18 -15 -18 -8 0 -15 -7
-15 -15 0 -8 9 -15 20 -15 11 0 20 7 20 15 0 8 9 15 20 15 11 0 20 -7 20 -15
0 -8 9 -15 20 -15 11 0 20 7 20 15 0 8 -9 15 -20 15 -15 0 -20 7 -20 25 0 18
-5 25 -18 25 -10 0 -22 -3 -25 -7z"/>
<path d="M1976 2266 c-4 -22 -13 -36 -26 -39 -11 -3 -20 -12 -20 -20 0 -8 -9
-17 -20 -20 -12 -3 -20 -14 -20 -26 0 -12 -6 -21 -14 -21 -18 0 -29 -59 -20
-115 6 -44 7 -45 45 -45 32 0 39 3 39 20 0 13 7 20 20 20 13 0 20 7 20 20 0
11 6 20 14 20 7 0 16 -9 19 -20 3 -12 14 -20 26 -20 14 0 21 -6 21 -20 0 -17
7 -20 40 -20 l40 0 0 80 c0 73 -2 80 -20 80 -15 0 -20 7 -20 25 0 18 -5 25
-20 25 -13 0 -20 7 -20 20 0 13 -7 20 -20 20 -16 0 -20 7 -20 35 0 28 -4 35
-19 35 -13 0 -21 -10 -25 -34z"/>
<path d="M1780 1640 c0 -17 7 -20 40 -20 33 0 40 3 40 20 0 17 -7 20 -40 20
-33 0 -40 -3 -40 -20z"/>
<path d="M1900 1640 c0 -17 7 -20 40 -20 33 0 40 3 40 20 0 17 -7 20 -40 20
-33 0 -40 -3 -40 -20z"/>
<path d="M2020 1640 c0 -17 7 -20 40 -20 33 0 40 3 40 20 0 17 -7 20 -40 20
-33 0 -40 -3 -40 -20z"/>
<path d="M2140 1640 c0 -17 7 -20 40 -20 33 0 40 3 40 20 0 17 -7 20 -40 20
-33 0 -40 -3 -40 -20z"/>
<path d="M1580 1600 c0 -11 7 -20 15 -20 8 0 15 9 15 20 0 11 -7 20 -15 20 -8
0 -15 -9 -15 -20z"/>
<path d="M2380 1600 c0 -13 7 -20 20 -20 13 0 20 7 20 20 0 13 -7 20 -20 20
-13 0 -20 -7 -20 -20z"/>
<path d="M1620 1280 c0 -11 7 -20 15 -20 8 0 15 9 15 20 0 11 -7 20 -15 20 -8
0 -15 -9 -15 -20z"/>
<path d="M2340 1280 c0 -13 7 -20 20 -20 13 0 20 7 20 20 0 13 -7 20 -20 20
-13 0 -20 -7 -20 -20z"/>
<path d="M1780 1241 c0 -18 6 -21 41 -21 33 0 40 3 37 18 -2 12 -14 18 -41 20
-32 3 -37 0 -37 -17z"/>
<path d="M1900 1241 c0 -18 6 -21 41 -21 33 0 40 3 37 18 -2 12 -14 18 -41 20
-32 3 -37 0 -37 -17z"/>
<path d="M2020 1240 c0 -17 7 -20 40 -20 33 0 40 3 40 20 0 17 -7 20 -40 20
-33 0 -40 -3 -40 -20z"/>
<path d="M2140 1240 c0 -17 7 -20 40 -20 33 0 40 3 40 20 0 17 -7 20 -40 20
-33 0 -40 -3 -40 -20z"/>
</g>
</svg>
